<svg id="Capa_1" data-name="Capa 1" xmlns="http://www.w3.org/2000/svg" viewBox="0 0 2203.44 2042.26"><defs><style>.cls-1{fill:#fff;}.cls-2{fill:#dccce6;}.cls-3{fill:#aea0cc;}.cls-4{fill:#b1b3db;}.cls-5{fill:#8f7db6;}.cls-6{fill:#512518;}.cls-7{fill:#f7e3d4;}.cls-8{fill:#415220;}.cls-9{fill:#fff7f5;}.cls-10{fill:#9c9897;}.cls-11{fill:#524697;}.cls-12{fill:#9e191b;}.cls-13{fill:#71130c;}.cls-14{fill:#37461a;}.cls-15{fill:#c5563c;}.cls-16{fill:#ec6548;}.cls-17{fill:#548c23;}.cls-18{fill:#5f1d0c;}.cls-19{fill:#2b0600;}.cls-20{fill:#ef7855;}.cls-21{fill:#bdbcbc;}.cls-22{fill:#e37b24;}.cls-23{fill:#342203;}.cls-24{fill:#5f401a;}.cls-25{fill:#317272;}.cls-26{fill:#449b9c;}.cls-27{fill:#162e4b;}.cls-28{fill:#d4d4d4;}.cls-29{fill:#ed6f3b;}.cls-30{fill:#f0b99c;}.cls-31{fill:#ea5037;}.cls-32{fill:#ddab91;}.cls-33{fill:#5d3421;}.cls-34{fill:#202220;}.cls-35{fill:#10110d;}.cls-36{fill:#fcfaee;}.cls-37{fill:#c32f2c;}.cls-38{fill:#dc3333;}</style></defs><polyline class="cls-1" points="2203.44 2042.26 0 2042.26 0 0 2203.44 0 2203.44 2042.26"/><path class="cls-2" d="M1271.91,111.91c-268.82,0-557.26,96.69-702.58,278.89-60.05,75.32-95.65,165.26-95.28,269,.7,187.94-220.18,199-323.22,330.79-92.5,118.27-105,283,26,385.8,102.33,80.3,239.11,78,365.42,105.32,152.85,33.1,110.74,118.12,121.13,226.06C670,1776,715.78,1802,771.52,1802c40.75,0,86.8-13.94,126.69-35.55,56.35-30.54,135.13-41.47,216.62-41.47,91.54,0,186.51,13.79,257.06,29.06,60,13,136.13,23.22,212.06,23.22,91.58,0,182.87-14.87,245.4-57.72,99.15-67.94,144.2-202,47.71-274.32-75.11-56.3-104.16-101.52-8.94-159,102.69-62,218.54-112.58,249.49-232.23,24.41-94.4-31.88-165.59-79.33-245.28-54.63-91.73-197.2-133.49-215.84-235.49-19.07-104.34,33.64-190.66-51.28-285.42-76.29-85.1-234.62-149.59-356.33-166.38a1049.14,1049.14,0,0,0-142.92-9.55" transform="translate(0 0)"/><path class="cls-3" d="M663.91,1880.3c175.75,52.37,361.63,53.34,543.36,47.81,112.13-3.41,227-1.32,337.84-20.19,65.85-11.22,211.8-27.84,219.42-116.67,5-57.59-64.69-88.42-109-103.85-71.55-24.93-145.6-37-220.73-45-122.15-13-248-15.22-371.11-16.73-106.86-1.32-213.82,2.34-319.6,18.56-68,10.43-148.78,28.41-201.09,77.23a172.53,172.53,0,0,0-15.25,16.14c-32,38.62-32,79.2,16.1,104C578.78,1859.57,626.16,1869.05,663.91,1880.3Z" transform="translate(0 0)"/><path class="cls-4" d="M902.84,1828.37c86.64,25.82,178.26,26.3,267.84,23.58,55.27-1.69,111.89-.66,166.53-10,32.46-5.54,104.41-13.73,108.17-57.51,2.43-28.39-31.88-43.59-53.71-51.2-35.28-12.29-71.79-18.23-108.81-22.18-60.23-6.43-122.28-7.5-182.95-8.25-52.67-.64-105.4,1.15-157.54,9.15-33.54,5.15-73.34,14-99.12,38.07a85.87,85.87,0,0,0-7.53,8c-15.79,19-15.8,39,7.95,51.26C860.86,1818.16,884.22,1822.83,902.84,1828.37Z" transform="translate(0 0)"/><path class="cls-5" d="M969.58,1813.86c61.75,18.4,127,18.74,190.88,16.8,39.38-1.2,79.73-.47,118.68-7.1,23.13-3.94,74.39-9.78,77.07-41,1.74-20.23-22.73-31.06-38.28-36.48-25.13-8.76-51.14-13-77.55-15.81-42.9-4.57-87.12-5.34-130.36-5.87-37.53-.46-75.1.82-112.26,6.51-23.89,3.67-52.26,10-70.63,27.13a61.3,61.3,0,0,0-5.36,5.68c-11.26,13.56-11.26,27.81,5.65,36.53C939.69,1806.59,956.33,1809.91,969.58,1813.86Z" transform="translate(0 0)"/><path class="cls-5" d="M695.5,1863.41l27.49,6.34,33,7.61c13.11,2.44,28.27,4.74,45.19,7.59,8.48,1.29,17.33,3.17,26.79,4l29.57,3.19c10.3,1,20.95,2.53,32.1,3.19l34.61,2.24c23.82,2,49.27,2.08,76.05,3,13.38.57,27.15.18,41.21.3,14.08-.15,28.46.28,43.17,0,29.41-.37,60-.72,91.75-1.81,31.69-.91,64.57-1.4,98.32-1.91,67.44-1.37,138.59-1.29,211.61-9.31l27.44-3.29,27.7-3.68c18.51-2.45,37.07-5.37,55.55-9.18s36.91-8.49,54.73-15.13,35.31-15.06,49-28.24a65.87,65.87,0,0,0,15.89-23,52.16,52.16,0,0,0,3.21-27.57,51.43,51.43,0,0,0-12-24.88,105.65,105.65,0,0,0-21.75-18.49c-16.27-10.36-34.38-17.77-52.82-24-4.56-1.55-9.36-3-13.84-4.39l-14.24-3.72-28.49-7.44-7.13-1.86-7.19-1.38-14.38-2.74-28.71-5.49c-19.36-2.68-38.68-5.56-58-7.85l-29.07-3c-9.75-1-19.22-2.07-29-2.61l-58-4c-19.29-1.6-38.46-2-57.55-2.88-19.1-.7-38-1.83-57-2.16-37.84-.75-75.2-1.79-112-2l-54.63-.54-53.71,0c-17.75-.25-35.15.58-52.4,1l-25.71.72-12.73.35-12.62.81-49.64,3.21-12.18.79-12,1.32-23.79,2.48c-15.71,1.71-31.23,2.94-46.36,5s-29.85,4.34-44.22,7.06c-28.68,5.5-55.84,12.48-80.44,22.37a255.89,255.89,0,0,0-34.59,17.11c-5.23,3.41-10.47,6.66-15.22,10.44l-3.63,2.73c-.89.68-2.18,2-3.25,2.92-2.23,2-4.45,4.1-6.66,6.12l-3.29,3-1.44,1.33-1.48,1.65c-2,2.2-4,4.36-5.58,6.59l-2.54,3.29-2.25,3.49a61.36,61.36,0,0,0-4,7.13c-4.71,9.63-6.31,20.46-3.26,29.86s9.76,17,17.2,22.45A108.91,108.91,0,0,0,591.87,1834a358.71,358.71,0,0,0,43.41,14.18c12.88,3.44,23.91,6.1,32.85,8.29C686,1860.81,695.5,1863.41,695.5,1863.41Zm-.3,1.18s-9.5-2.49-27.43-6.63c-9-2.09-20-4.62-33-7.93a356.9,356.9,0,0,1-43.87-13.78,112,112,0,0,1-24.3-12.57c-7.86-5.49-15.34-13.24-19-23.56s-2.2-22.44,2.57-32.88a68.53,68.53,0,0,1,4-7.73l2.3-3.77,2.63-3.63c1.73-2.52,3.65-4.67,5.55-6.93l1.42-1.69c.86-.91,1.15-1.14,1.76-1.75l3.2-3.11,6.48-6.31c1.18-1.1,2-2,3.47-3.28l3.67-2.93c4.8-4.07,10.11-7.6,15.41-11.3a261.92,261.92,0,0,1,35.07-18.72c24.95-10.87,52.43-19.15,81.49-25.11,14.52-3,29.46-5.66,44.67-8s30.79-3.86,46.6-5.88l23.94-2.85L844,1652.9l12.26-.83,50-3.39,12.7-.85,12.83-.4,25.89-.8c17.37-.45,35-1.33,52.68-1.14l53.71-.12c18.24,0,36.39.56,54.84.82,36.82.46,74.28,1.8,112.19,2.85,19,.48,38.07,1.77,57.25,2.62,19.16,1.1,38.51,1.54,57.73,3.45,76.91,5.83,155.94,13.21,232.46,33.23l28.36,8,14.16,4c4.9,1.55,9.44,3.08,14.14,4.75,18.57,6.64,36.88,14.52,53.47,25.48a109.66,109.66,0,0,1,22.6,19.5,55.45,55.45,0,0,1,12.8,27.22,56.12,56.12,0,0,1-3.67,29.51,69.76,69.76,0,0,1-17,24.3c-14.49,13.53-32.26,22.35-50.21,29.28s-36.63,11.75-55.21,15.8-37.24,7-55.72,10l-27.6,4.31-27.53,3.94c-36.62,4.68-72.83,7.81-108.29,9.58-17.73,1.09-35.26,1.7-52.59,2.36l-51.31,1.26c-67.41,1.58-131.26,3.36-190.27,2.85s-113.08-3.14-160.82-7.55l-34.63-3.21c-11.14-1-21.8-2.82-32.09-4.1-20.53-2.87-39.44-5-56.33-8.48l-45.16-8.24-33-7.77Z" transform="translate(0 0)"/><rect class="cls-6" x="512.75" y="394.34" width="430.01" height="885.86"/><rect class="cls-7" x="558.38" y="430.36" width="151.86" height="383.54"/><rect class="cls-7" x="558.38" y="860.63" width="151.86" height="383.54"/><rect class="cls-7" x="745.29" y="430.36" width="151.86" height="383.54"/><rect class="cls-7" x="745.29" y="860.63" width="151.86" height="383.54"/><path class="cls-8" d="M1525.94,491.21c0,1.46,0,3-9.63,3H1392c-9.58,0-8.89-4.49-8.89-10s-.69-10,8.89-10h124.36c9.58,0,9.59.15,9.59,2.7Z" transform="translate(0 0)"/><rect class="cls-9" x="1392.69" y="476.83" width="133.21" height="14.66"/><rect class="cls-10" x="1396.87" y="477.71" width="129.03" height="0.51"/><rect class="cls-10" x="1396.87" y="479.48" width="129.03" height="0.51"/><rect class="cls-10" x="1396.87" y="481.25" width="129.03" height="0.51"/><rect class="cls-10" x="1396.87" y="483.02" width="129.03" height="0.5"/><rect class="cls-10" x="1396.87" y="484.79" width="129.03" height="0.5"/><rect class="cls-10" x="1396.87" y="486.56" width="129.03" height="0.51"/><rect class="cls-10" x="1396.87" y="488.33" width="129.03" height="0.51"/><rect class="cls-10" x="1396.87" y="490.1" width="129.03" height="0.5"/><path class="cls-11" d="M1525.94,468.71c0,2.51,0,5.14-9.63,5.14H1392c-9.58,0-8.89-7.77-8.89-17.35s-.69-17.35,8.89-17.35h124.36c9.58,0,9.59.25,9.59,4.66Z" transform="translate(0 0)"/><rect class="cls-9" x="1392.69" y="443.81" width="133.21" height="25.36"/><rect class="cls-10" x="1396.87" y="445.34" width="129.03" height="0.87"/><rect class="cls-10" x="1396.87" y="448.4" width="129.03" height="0.88"/><rect class="cls-10" x="1396.87" y="451.46" width="129.03" height="0.88"/><rect class="cls-10" x="1396.87" y="454.53" width="129.03" height="0.87"/><rect class="cls-10" x="1396.87" y="457.59" width="129.03" height="0.87"/><rect class="cls-10" x="1396.87" y="460.65" width="129.03" height="0.88"/><rect class="cls-10" x="1396.87" y="463.71" width="129.03" height="0.88"/><rect class="cls-10" x="1396.87" y="466.77" width="129.03" height="0.88"/><path class="cls-12" d="M1392.65,407.13c0-2.74,0-5.6,8.33-5.6h107.64c8.29,0,7.7,8.46,7.7,18.89s.59,18.87-7.7,18.87H1401c-8.28,0-8.28-.27-8.28-5.07Z" transform="translate(0 0)"/><rect class="cls-9" x="1392.7" y="406.61" width="115.29" height="27.6"/><rect class="cls-10" x="1392.7" y="431.6" width="111.65" height="0.95"/><rect class="cls-10" x="1392.7" y="428.27" width="111.65" height="0.95"/><rect class="cls-10" x="1392.7" y="424.93" width="111.65" height="0.95"/><rect class="cls-10" x="1392.7" y="421.6" width="111.65" height="0.96"/><rect class="cls-10" x="1392.7" y="418.27" width="111.65" height="0.95"/><rect class="cls-10" x="1392.7" y="414.94" width="111.65" height="0.95"/><rect class="cls-10" x="1392.7" y="411.6" width="111.65" height="0.96"/><rect class="cls-10" x="1392.7" y="408.28" width="111.65" height="0.96"/><polygon class="cls-13" points="1503.77 428.5 1500.28 423.11 1496.92 428.5 1496.92 411.44 1503.77 411.44 1503.77 428.5"/><path class="cls-14" d="M1696.33,336.44c-24,1.87-39.73,20.34-39.49,44.27-2.61-27,9.47-45.5,28.62-62.94,12.36-11.25,15.89-34,34.4-37.65,18.84-3.68,38.59,15.22,48.72,28.76,7.47,10,18.49,37.26,33.36,36.8-14,2.16-23.75-1.16-35.2-9.85-10.18-7.73-20.77-21.9-36-17.08-6.27,2-10.58,10-15.94,13.53C1708.85,336.22,1703.6,335.88,1696.33,336.44Z" transform="translate(0 0)"/><path class="cls-8" d="M1664.23,335.76c-6.28,16-11.7,37.87-13.22,55.07,1.72-19.56-9.07-37.5-12.79-56.19-4-20.18-7.47-42.05-.87-62.16,10.81-32.86,42.53-62.6,40.21-99.08,9.83,24,21.66,54.69,19.79,81.06-1.15,16.15-4.71,31.1-12.6,45.45C1678,312.25,1669.25,322.93,1664.23,335.76Z" transform="translate(0 0)"/><path class="cls-14" d="M1642,343.86c3.53,15.89,4.81,32.58,6.08,48.79-1.36-16-11.36-27.83-25.31-35-16.6-8.58-28.21-14.44-37.85-31.36-9.3-16.3-13.36-34.72-22.12-51.39-6.87-13.05-28.53-41.6-45.65-39.4,20.74-1.52,42.1,4.68,57.64,18.22,5.48,4.78,11.77,9.81,16.24,15.61,4.15,5.36,6.59,12,11.83,16.6,10.27,9.05,19.72,12.15,27,25C1635.66,321.13,1639.41,332.27,1642,343.86Z" transform="translate(0 0)"/><path class="cls-15" d="M1702.63,485.15c0,16.71-14.15,17.23-31.6,17.23h-44.11c-17.47,0-31.62-.52-31.62-17.23v-87.8c0-16.7,14.15-17.22,31.62-17.22H1671c17.45,0,31.6.52,31.6,17.22Z" transform="translate(0 0)"/><path class="cls-16" d="M1717.65,385.17a15.13,15.13,0,0,1-15.12,15.12H1595.4a15.13,15.13,0,0,1-15.12-15.12c0-8.35,6.78-8,15.12-8h107.13C1710.87,377.18,1717.65,376.82,1717.65,385.17Z" transform="translate(0 0)"/><path class="cls-8" d="M1635.85,377.08h5.41a86.53,86.53,0,0,1-5.29-7.21c-4.46-7.18-12-14.13-20.29-16.39-16-4.34-32.34,8.45-41.13,20.35-15.24,20.65-19.7,48-38.53,66.2-5.74,5.53-12.63,8.49-20.07,11.11,9.65,9.64,27.17,11.59,39.32,7.24,12.82-4.6,25.84-13.35,33.68-24.62a55.37,55.37,0,0,0,5.53-10c3.67-8.66,5.08-17.75,6.86-27.53,1.44-8,4.71-22.59,13.53-25.74,5.74-2,13.12,1.45,17.89,4.5C1633.58,375.48,1634.65,376.21,1635.85,377.08Z" transform="translate(0 0)"/><path class="cls-8" d="M1753.91,348.84c-11.12-6.47-23.73-9.35-36.5-7.4a102.4,102.4,0,0,0-16.89,4.1A111.11,111.11,0,0,0,1676.36,357c-6.6,4.18-14.37,10.15-17.46,17.65-.35.82-.74,1.66-1.1,2.51h1.84l.89-1a43.27,43.27,0,0,1,7.18-6.67,50.81,50.81,0,0,1,25-9.31c6.55-.69,11.85,1,17.68,4,11.85,6.12,20.76,16.95,29.37,26.82q1.67,1.93,3.38,3.86c9,10.16,22.79,18.43,36.71,20.36,10.86,1.51,34.19,1.44,38.59-10.82C1788.92,413,1774.92,361.05,1753.91,348.84Z" transform="translate(0 0)"/><path class="cls-8" d="M1375.28,443.89c0,9.58,1.27,17.35-8.31,17.35H1242.62c-9.58,0-8.9-7.77-8.9-17.35s-.68-17.35,8.9-17.35H1367C1376.55,426.54,1375.28,434.3,1375.28,443.89Z" transform="translate(0 0)"/><rect class="cls-17" x="1243.51" y="433.82" width="93.38" height="20.12"/><path class="cls-9" d="M1365.52,443.89a11.81,11.81,0,1,1-11.8-11.81A11.8,11.8,0,0,1,1365.52,443.89Z" transform="translate(0 0)"/><path class="cls-18" d="M1233.76,413.41c0-7.08-1.26-12.82,8.32-12.82h124.34c9.59,0,8.9,5.74,8.9,12.82s.69,12.84-8.9,12.84H1242.08C1232.5,426.25,1233.76,420.5,1233.76,413.41Z" transform="translate(0 0)"/><rect class="cls-19" x="1347.14" y="400.58" width="5.54" height="25.66"/><rect class="cls-19" x="1355.89" y="400.58" width="5.54" height="25.66"/><rect class="cls-19" x="1247.13" y="407.7" width="87.77" height="11.43"/><rect class="cls-20" x="1228.57" y="460.95" width="151.92" height="33.24"/><rect class="cls-9" x="1228.57" y="464.87" width="151.92" height="25.37"/><rect class="cls-21" x="1231.29" y="465.97" width="146.44" height="0.87"/><rect class="cls-21" x="1231.29" y="468.45" width="146.44" height="0.87"/><rect class="cls-21" x="1231.29" y="470.93" width="146.44" height="0.87"/><rect class="cls-21" x="1231.29" y="473.41" width="146.44" height="0.87"/><rect class="cls-21" x="1231.29" y="475.89" width="146.44" height="0.87"/><rect class="cls-21" x="1231.29" y="478.36" width="146.44" height="0.87"/><rect class="cls-21" x="1231.29" y="480.84" width="146.44" height="0.87"/><rect class="cls-21" x="1231.29" y="483.32" width="146.44" height="0.87"/><rect class="cls-21" x="1231.29" y="485.8" width="146.44" height="0.87"/><rect class="cls-21" x="1231.29" y="488.27" width="146.44" height="0.88"/><path class="cls-22" d="M1761.86,515.19a20.17,20.17,0,0,1-20.16,20.16H1217.43a20.17,20.17,0,0,1,0-40.33H1741.7A20.17,20.17,0,0,1,1761.86,515.19Z" transform="translate(0 0)"/><path class="cls-23" d="M1880.1,879.6s5.09-21.94,12.74-54.87,18.06-76.76,28.39-120.62c5.15-21.93,10.31-43.86,15.15-64.42,2.66-10.22,5-20.15,7.64-29.48s5-18.18,7.17-26.33,4.45-15.58,6.33-22.18,3.59-12.35,5.06-17.07c2.85-9.44,4.61-14.81,4.61-14.81l.69.17s-1,5.57-2.88,15.25c-.91,4.85-2.1,10.72-3.53,17.44s-2.92,14.32-4.81,22.56-3.88,17.17-6,26.62-4.63,19.34-7.07,29.61l-16.83,64c-11.44,43.58-22.9,87.16-31.49,119.85l-14.47,54.43Z" transform="translate(0 0)"/><path class="cls-24" d="M1956.58,529.61a9.78,9.78,0,1,0,9.76-9.78A9.76,9.76,0,0,0,1956.58,529.61Z" transform="translate(0 0)"/><path class="cls-25" d="M390,768.6s290.36,356.46,726.46,389.64,770.19-298.4,770.19-298.4-145.76,567.62-724,558.14S390,768.6,390,768.6Z" transform="translate(0 0)"/><path class="cls-26" d="M390,768.6s288.72,619.49,742.57,661c475.23,43.42,754.08-569.73,754.08-569.73s19.62,720.17-775.58,666.44C393.21,1477.77,390,768.6,390,768.6Z" transform="translate(0 0)"/><path class="cls-23" d="M394.12,784.39s-4.91-16.88-12.29-42.21-17-59.16-26.7-93c-4.88-16.89-9.86-33.76-14.26-49.65-2-8-4.19-15.66-5.91-23s-3.42-14.3-5-20.72-2.75-12.35-3.93-17.58-2.13-9.81-2.85-13.6c-1.53-7.55-2.28-11.91-2.28-11.91l.69-.18s1.54,4.14,4,11.44c1.28,3.64,2.74,8.08,4.36,13.19s3.58,10.85,5.45,17.17,3.94,13.17,6.1,20.41,4.22,14.94,6.47,22.88c4.17,15.94,8.34,33,12.6,50.09,8.59,34.11,17.17,68.22,23.61,93.8l10.58,42.68Z" transform="translate(0 0)"/><path class="cls-24" d="M332.25,512.35a9.78,9.78,0,1,1-9.77-9.78A9.76,9.76,0,0,1,332.25,512.35Z" transform="translate(0 0)"/><path class="cls-27" d="M1272.63,1304.53s14.72,107.37-8.12,135.45-134.22-110.7-134.22-110.7Z" transform="translate(0 0)"/><path class="cls-27" d="M1021.56,1303.55s-9,147.21,129.87,145.62c129.84-1.48,119.56-145.62,119.56-145.62Z" transform="translate(0 0)"/><path class="cls-28" d="M1281.87,1855c-.66,24.89-28.24,44.76-57.55,44.13s-55.79-21.25-55.09-46.12l6.12-105.34c.67-24.89,24.66-33,54-32.33s52.82,9.75,52.14,34.63Z" transform="translate(0 0)"/><path class="cls-29" d="M1276.19,1842.11c-.67,24.88-23.73,44.57-51.51,44s-49.74-21.24-49.07-46.13l2.53-93.7c.69-24.88,23.75-44.56,51.52-44s49.75,21.27,49.08,46.15Z" transform="translate(0 0)"/><path class="cls-30" d="M1264.75,1726.17c-.43,15.59-18.78,35.65-36.19,35.28s-35.66-21.24-35.23-36.83l5.72-56.07c.42-15.59,14.78-24.93,32.19-24.54s31.26,10.31,30.83,25.91Z" transform="translate(0 0)"/><path class="cls-29" d="M1251.41,1744.81c-.33,11.69-11.16,20.94-24.2,20.66s-23.38-10-23.07-21.69l-3.6-15.85c.32-11.69,15.11-18.15,28.15-17.87s29,8.31,28.66,20Z" transform="translate(0 0)"/><path class="cls-28" d="M1259.71,1763c-.07,3-2.85,5.33-6.18,5.27l-49.77-1.09c-3.35-.07-6-2.55-5.9-5.54s2.85-5.33,6.18-5.26l49.79,1.07C1257.16,1757.56,1259.8,1760,1259.71,1763Z" transform="translate(0 0)"/><path class="cls-28" d="M1259.3,1778.34c-.08,3-2.85,5.35-6.19,5.27l-49.77-1.08c-3.35-.08-6-2.55-5.89-5.53s2.84-5.36,6.17-5.28l49.79,1.08C1256.74,1772.87,1259.39,1775.35,1259.3,1778.34Z" transform="translate(0 0)"/><path class="cls-28" d="M1258.87,1794.1c-.08,3-2.85,5.35-6.19,5.28l-49.77-1.08c-3.34-.07-6-2.56-5.89-5.54s2.84-5.35,6.17-5.27l49.8,1.08C1256.32,1788.63,1259,1791.12,1258.87,1794.1Z" transform="translate(0 0)"/><path class="cls-28" d="M1258.45,1809.42c-.08,3-2.85,5.34-6.17,5.28l-49.78-1.08c-3.35-.08-6-2.56-5.9-5.54s2.84-5.36,6.18-5.28l49.78,1.09C1255.89,1804,1258.55,1806.44,1258.45,1809.42Z" transform="translate(0 0)"/><path class="cls-27" d="M1187.32,1684.36c-.55,20.24,17.75,20.68,40.35,21.17s40.94.85,41.49-19.39q2.52-78.73,5-157.44c1.62-50.57,30.68-157.09-52.17-164-89.56-7.53-60.17,108.14-54.38,156.25Q1177.49,1602.65,1187.32,1684.36Z" transform="translate(0 0)"/><path class="cls-30" d="M957.42,816c-5-11.46-23-15.86-40.25-9.84S890,826.38,895,837.84l75.3,172.88c5,11.45,23,15.86,40.25,9.83s27.18-20.2,22.17-31.65Z" transform="translate(0 0)"/><path class="cls-30" d="M999.22,653.8c3.67-11.85,2.85-21.06-14-25.24-8.81-3.11-23.75,5.46-27.42,17.32l-65,175.43c-3.65,11.85,7,24.84,23.87,29s33.47-2.05,37.14-13.9Z" transform="translate(0 0)"/><path class="cls-30" d="M1010,655.23c1-.89,1.87-1.79,2.72-2.7a106.76,106.76,0,0,0,11-13.32c1.63-2.49,4.2-9.57-.92-10.74-2.92-.66-4.2,2-6,3.65a31.85,31.85,0,0,1-15.74,7.87c-.75-3.38,3.45-9,5-11.94,2.5-4.76,5.24-9.64,7.91-14.37,4.45-7.86,8.57-13.38,3.75-21.58s-14.18-12.23-24.7-10.44c-14.42,2.49-19.32,21.72-24.16,31.61-5.63,11.49-11.34,23.81-12.58,36.34-1.06,10.87,9.25,18.94,20.29,21.09,6.76,1.32,14.09.41,19.11-3.83C1000.24,663.12,1005.6,659.33,1010,655.23Z" transform="translate(0 0)"/><path class="cls-30" d="M1329.81,816c5-11.46,23-15.86,40.24-9.84s27.18,20.2,22.19,31.66l-75.31,172.88c-5,11.45-23,15.86-40.24,9.83s-27.16-20.2-22.18-31.65Z" transform="translate(0 0)"/><path class="cls-30" d="M1288,653.8c-3.67-11.85-2.85-21.06,14-25.24,8.81-3.11,23.77,5.46,27.43,17.32l65,175.43c3.66,11.85-7,24.84-23.87,29s-33.47-2.05-37.13-13.9Z" transform="translate(0 0)"/><path class="cls-30" d="M1277.22,655.23q-1.44-1.34-2.73-2.7c-3.94-4.27-8-8.68-11-13.32-1.62-2.49-4.2-9.57.94-10.74,2.91-.66,4.18,2,5.95,3.65a31.86,31.86,0,0,0,15.73,7.87c.75-3.38-3.44-9-5-11.94-2.5-4.76-5.23-9.64-7.91-14.37-4.45-7.86-8.56-13.38-3.75-21.58s14.18-12.23,24.7-10.44c14.42,2.49,19.32,21.72,24.16,31.61,5.63,11.49,11.34,23.81,12.58,36.34,1.08,10.87-9.23,18.94-20.28,21.09-6.76,1.32-14.08.41-19.12-3.83C1287,663.12,1281.64,659.33,1277.22,655.23Z" transform="translate(0 0)"/><path class="cls-29" d="M1071.85,1066.22s-64.53,4.44-83.14-21.12-69.49-116.72-69.49-116.72,55.85-40,81.9-36.69C1013.53,912.81,1071.85,1066.22,1071.85,1066.22Z" transform="translate(0 0)"/><path class="cls-29" d="M1220.77,1066.22s64.53,4.44,83.15-21.12,69.49-116.72,69.49-116.72-55.84-40-81.9-36.69C1279.09,912.81,1220.77,1066.22,1220.77,1066.22Z" transform="translate(0 0)"/><path class="cls-31" d="M1097.29,964.49s-95.55-3.33-93.06,83.38,14.89,257.9,14.89,257.9,39.71,46.7,117.89,47.8,137.75-48.91,137.75-48.91l12.41-243.45s19.86-94.49-96.8-95.6C1062.51,964.4,1097.29,964.49,1097.29,964.49Z" transform="translate(0 0)"/><path class="cls-32" d="M1194.08,986.9c0,21.18-21.38,38.35-47.76,38.35s-47.78-17.17-47.78-38.35l7.4-43.91c0-21.18,14-37.8,40.38-37.8s40.28,17.74,40.28,38.91Z" transform="translate(0 0)"/><path class="cls-27" d="M1020.31,1310.22s-93.07,68.93-98,103.38,182.42,2.23,182.42,2.23Z" transform="translate(0 0)"/><path class="cls-28" d="M1462.82,1405.05c27.7,2,48.24,27.87,45.83,54s-26.92,48.64-54.6,46.59l-117-11.63c-27.7-2-35.3-24-32.9-50.13s14-46.67,41.64-44.61Z" transform="translate(0 0)"/><path class="cls-29" d="M1448.14,1409.38c27.68,2,48.27,23.82,46,48.63s-26.58,43.24-54.27,41.2l-104.29-7.74c-27.69-2-48.27-23.82-46-48.63s26.58-43.23,54.28-41.19Z" transform="translate(0 0)"/><path class="cls-30" d="M1318.24,1412.87c17.36,1.28,38.65,18.87,37.23,34.41s-25.76,30.66-43.1,29.36l-62.15-8.38c-17.37-1.29-26.93-14.68-25.48-30.23s13.32-27.35,30.67-26Z" transform="translate(0 0)"/><path class="cls-29" d="M1338.25,1425.88c13,1,22.69,11.2,21.61,22.85s-12.51,20.33-25.5,19.36l-17.89,2.28c-13-.94-19.35-14.55-18.27-26.2s11-25.41,24-24.46Z" transform="translate(0 0)"/><path class="cls-28" d="M1359,1419.51c3.33.25,5.8,2.87,5.53,5.83l-4.1,44.46c-.29,3-3.21,5.19-6.52,4.94s-5.79-2.86-5.52-5.83l4.11-44.45C1352.79,1421.48,1355.71,1419.27,1359,1419.51Z" transform="translate(0 0)"/><path class="cls-28" d="M1376.07,1420.77c3.33.24,5.8,2.87,5.53,5.84l-4.12,44.45c-.28,3-3.19,5.19-6.5,5s-5.81-2.86-5.53-5.83l4.11-44.46C1369.84,1422.75,1372.75,1420.53,1376.07,1420.77Z" transform="translate(0 0)"/><path class="cls-28" d="M1393.61,1422.07c3.35.25,5.8,2.87,5.54,5.84l-4.12,44.46c-.27,3-3.19,5.17-6.51,4.93s-5.79-2.85-5.52-5.83l4.11-44.46C1387.38,1424,1390.3,1421.84,1393.61,1422.07Z" transform="translate(0 0)"/><path class="cls-28" d="M1410.66,1423.34c3.33.24,5.8,2.86,5.53,5.82l-4.11,44.47c-.27,3-3.2,5.18-6.52,4.94s-5.8-2.86-5.52-5.84l4.11-44.45C1404.43,1425.3,1407.34,1423.09,1410.66,1423.34Z" transform="translate(0 0)"/><path class="cls-27" d="M1267.14,1479.67c22.53,1.67,24.09-14.67,25.94-34.85s3.35-36.56-19.19-38.23l-175.17-13.67c-56.26-4.41-173.26-36.61-185.85,37.08-13.6,79.67,117,60.11,171,57.74Q1175.47,1483.69,1267.14,1479.67Z" transform="translate(0 0)"/><path class="cls-30" d="M1249.61,846.46c0,62.73-18.81,113.59-101.47,113.59-85.67,0-101.47-50.86-101.47-113.59s45.44-113.62,101.47-113.62S1249.61,783.72,1249.61,846.46Z" transform="translate(0 0)"/><path class="cls-30" d="M1070.91,839.9c0,12-10.59,21.7-23.67,21.7s-23.67-9.72-23.67-21.7,10.6-21.72,23.67-21.72S1070.91,827.89,1070.91,839.9Z" transform="translate(0 0)"/><path class="cls-30" d="M1272.71,839.9c0,12-10.61,21.7-23.68,21.7s-23.67-9.72-23.67-21.7,10.6-21.72,23.67-21.72S1272.71,827.89,1272.71,839.9Z" transform="translate(0 0)"/><path class="cls-33" d="M1218.62,823.08c.42-7.59,11.25-16.35,5.44-24.53,1,1.44,6.16,2.72,7.87,4.64a23.61,23.61,0,0,1,4.31,8.41c2.73,8.31,3.06,17.45,2.19,26-.41,3.94-4.25,12.47.75,15.23,6.5,3.6,11-3.34,11-7.93-.05-11.32-1.3-24.8,4.17-35.35s10-23.68,5.36-34.82c-5.9-14.15-24.26-20.8-35.76-30.92-13.13-11.58-14.39-30.19-32.5-37.76-14.42-6-26.69-4.39-40.5,1.12-15.78,6.31-30.67,7.95-47.86,8-8.65,0-17-1.28-25.62-1.51a32,32,0,0,0-24.06,9.79c-7,7.39-6.53,15.51-7.5,24.61-1.75,16.5-3.7,33-4,49.63a200.66,200.66,0,0,0,1,25.23c.79,7,2.61,14.57,2.59,21.51,0,4.43-1,7.62,5.64,7.58,4.94,0,7.33-2.69,7.89-6.67,1-6.83-2.87-13.16-2.72-19.93.14-7,4.21-14.13,10.11-18.74,7-5.47,14.22-10.52,20.54-16.65,6.12-5.93,7.33-12.42,9-20.15,3.43,6.45,15.88,12.6,23,15.85,13.48,6.15,31.71,10.12,47,10.78C1184.68,797.29,1221,800.28,1218.62,823.08Z" transform="translate(0 0)"/><path class="cls-34" d="M1322,1367.4a42,42,0,0,1-42,42H1000.29a42,42,0,0,1-42-42l-22.71-222a42,42,0,0,1,41.95-42h325.19a42,42,0,0,1,42,42Z" transform="translate(0 0)"/><circle class="cls-1" cx="1140.15" cy="1251.18" r="29.8"/><path class="cls-35" d="M1327.22,1416.35a17.49,17.49,0,0,1-17.48,17.49H970.57a17.49,17.49,0,1,1,0-35h339.17A17.49,17.49,0,0,1,1327.22,1416.35Z" transform="translate(0 0)"/><path class="cls-36" d="M1552.53,1567.11c-1.37,5.28-2,10.67-.37,16.46,4.22,15.07,13.8,25.38-2,37.87,9.83-8.61,1.4-18.68-4.73-25.69-6.88-7.86-14.41-14.89-12.35-26.46,3.33-18.77,27.4-40.3,7.36-58.3,11.38,2.44,17.09,17.4,18.24,27.43C1559.85,1548.61,1555,1557.67,1552.53,1567.11Z" transform="translate(0 0)"/><path class="cls-36" d="M1579.37,1593.36a20.44,20.44,0,0,0-.22,10.91c2.78,10,9.14,16.83-1.34,25.1,6.52-5.7.93-12.38-3.14-17-4.55-5.22-9.53-9.88-8.18-17.55,2.2-12.45,18.17-26.71,4.88-38.65,7.54,1.61,11.33,11.53,12.09,18.19S1581,1587.1,1579.37,1593.36Z" transform="translate(0 0)"/><path class="cls-37" d="M1636.3,1644.27h-12.93c-23.39,0-42.35,17.06-42.35,38.1V1712c0,21,19,38.1,42.35,38.1h12.93c23.38,0,42.34-17.06,42.34-38.1v-29.63C1678.64,1661.33,1659.68,1644.27,1636.3,1644.27Zm29.08,65.36c0,17.68-15.93,32-35.56,32H1619c-19.64,0-35.56-14.33-35.56-32v-24.9c0-17.67,15.92-32,35.56-32h10.87c19.63,0,35.56,14.33,35.56,32Z" transform="translate(0 0)"/><rect class="cls-38" x="1512.82" y="1632.5" width="109.37" height="139.32"/><rect class="cls-37" x="1504.6" y="1766.34" width="127" height="13.16"/></svg>