<?xml version="1.0" encoding="UTF-8"?>
<svg version="1.1" viewBox="0 0 413.73744 444.45753" xmlns="http://www.w3.org/2000/svg" xmlns:xlink="http://www.w3.org/1999/xlink">
 <defs>
  <linearGradient id="b">
   <stop stop-color="#fff" offset="0"/>
   <stop stop-color="#fff" stop-opacity="0" offset="1"/>
  </linearGradient>
  <filter id="a" color-interpolation-filters="sRGB"/>
  <linearGradient id="c">
   <stop offset="0"/>
   <stop stop-opacity="0" offset="1"/>
  </linearGradient>
  <linearGradient id="e">
   <stop stop-color="#b3b3b3" offset="0"/>
   <stop stop-color="#fff" offset="1"/>
  </linearGradient>
  <filter id="ac" x="-.02387" y="-.10043" width="1.0477" height="1.2009" color-interpolation-filters="sRGB"/>
  <linearGradient id="d">
   <stop stop-color="#4d4d4d" offset="0"/>
   <stop stop-color="#4d4d4d" stop-opacity="0" offset="1"/>
  </linearGradient>
  <filter id="af" color-interpolation-filters="sRGB">
   <feGaussianBlur stdDeviation=".29144"/>
  </filter>
  <filter id="ae" x="-.72679" y="-.02436" width="2.4536" height="1.0487" color-interpolation-filters="sRGB"/>
  <filter id="ad" color-interpolation-filters="sRGB">
   <feGaussianBlur stdDeviation=".28665"/>
  </filter>
  <filter id="ab" x="-.05973" y="-.13305" width="1.1194" height="1.2661" color-interpolation-filters="sRGB">
   <feGaussianBlur stdDeviation="2.38616"/>
  </filter>
  <linearGradient id="aa" x1="1036.5" x2="1025.1" y1="164.83" y2="174.4" gradientTransform="matrix(15.815 0 0 15.815 -15711 -2401.2)" gradientUnits="userSpaceOnUse">
   <stop stop-color="#ccc" offset="0"/>
   <stop stop-color="#fff" offset="1"/>
  </linearGradient>
  <linearGradient id="z" x1="1027.7" x2="1017.1" y1="166.91" y2="174.3" gradientTransform="matrix(15.815 0 0 15.815 -15711 -2401.2)" gradientUnits="userSpaceOnUse">
   <stop stop-color="#333" offset="0"/>
   <stop stop-color="#ccc" offset="1"/>
  </linearGradient>
  <linearGradient id="y" x1="1020.7" x2="1027" y1="173.07" y2="173.07" gradientTransform="matrix(15.815 0 0 15.815 -15711 -2401.2)" gradientUnits="userSpaceOnUse">
   <stop stop-color="#ccc" offset="0"/>
   <stop stop-color="#191919" offset="1"/>
  </linearGradient>
  <radialGradient id="i" cx="999.93" cy="205.93" r="2.8655" gradientTransform="matrix(55.987 25.92 -51.367 110.96 -45044 -48468)" gradientUnits="userSpaceOnUse">
   <stop stop-color="#fff" offset="0"/>
   <stop offset="1"/>
  </radialGradient>
  <linearGradient id="x" x1="1012.3" x2="1006.7" y1="172.48" y2="174.09" gradientTransform="matrix(15.815 0 0 15.815 -15711 -2401.2)" gradientUnits="userSpaceOnUse" xlink:href="#e"/>
  <radialGradient id="h" cx="990.44" cy="209.14" r="5.838" gradientTransform="matrix(-28.792 -35.184 33.772 -27.637 21806 40942)" gradientUnits="userSpaceOnUse">
   <stop stop-color="#fff" offset="0"/>
   <stop stop-color="#b3b3b3" offset="1"/>
  </radialGradient>
  <linearGradient id="w" x1="1007.5" x2="1008.3" y1="201.63" y2="197.35" gradientTransform="matrix(15.815 0 0 15.815 -15711 -2401.2)" gradientUnits="userSpaceOnUse" xlink:href="#c"/>
  <radialGradient id="g" cx="1006.3" cy="164.89" r="5.4729" gradientTransform="matrix(15.657 27.812 -42.83 24.111 -8484.6 -31774)" gradientUnits="userSpaceOnUse">
   <stop stop-color="#333" offset="0"/>
   <stop stop-color="#efefef" offset="1"/>
  </radialGradient>
  <linearGradient id="v" x1="1024.4" x2="1036.5" y1="174.58" y2="199.85" gradientTransform="matrix(15.815 0 0 15.815 -15711 -2401.2)" gradientUnits="userSpaceOnUse">
   <stop stop-color="#e6e6e6" offset="0"/>
   <stop stop-color="#666" offset="1"/>
  </linearGradient>
  <linearGradient id="u" x1="1010.5" x2="1012.5" y1="200.25" y2="180.74" gradientTransform="matrix(15.815 0 0 15.815 -15711 -2401.2)" gradientUnits="userSpaceOnUse">
   <stop stop-color="#fff" offset="0"/>
   <stop stop-color="#e6e6e6" offset="1"/>
  </linearGradient>
  <radialGradient id="f" cx="985.76" cy="238.35" r="11.035" gradientTransform="matrix(1.1641 -1.9754 2.046 1.2058 -614.23 1863.9)" gradientUnits="userSpaceOnUse" xlink:href="#b"/>
  <linearGradient id="t" x2="0" y1="233.49" y2="218.97" gradientUnits="userSpaceOnUse" xlink:href="#b"/>
  <linearGradient id="s" x1="1019.3" x2="1019.6" y1="180.29" y2="187.74" gradientUnits="userSpaceOnUse" xlink:href="#b"/>
  <linearGradient id="r" x2="0" y1="172.72" y2="184.86" gradientUnits="userSpaceOnUse" xlink:href="#d"/>
  <linearGradient id="q" x2="0" y1="207.77" y2="219.91" gradientUnits="userSpaceOnUse" xlink:href="#d"/>
  <linearGradient id="p" x1="1016.6" x2="1020.5" y1="171.12" y2="177.67" gradientUnits="userSpaceOnUse" xlink:href="#e"/>
  <linearGradient id="o" x1="1006.7" x2="1006.1" y1="170.13" y2="164.62" gradientUnits="userSpaceOnUse">
   <stop stop-color="#7f7f7f" stop-opacity="0" offset="0"/>
   <stop offset="1"/>
  </linearGradient>
  <linearGradient id="n" x1="1015.5" x2="1013" y1="170.63" y2="165.69" gradientUnits="userSpaceOnUse">
   <stop stop-color="#333" offset="0"/>
   <stop stop-color="#fff" stop-opacity="0" offset="1"/>
  </linearGradient>
  <linearGradient id="m" x1="1019.5" x2="1015.7" y1="174.22" y2="169.45" gradientUnits="userSpaceOnUse" xlink:href="#c"/>
  <linearGradient id="l" x1="1004.5" x2="1008.6" y1="162.97" y2="162.04" gradientUnits="userSpaceOnUse" xlink:href="#c"/>
  <linearGradient id="k" x1="1028.9" x2="1030.6" y1="162.44" y2="164.57" gradientUnits="userSpaceOnUse" xlink:href="#c"/>
  <linearGradient id="j" x1="1031.8" x2="1032.4" y1="164.11" y2="171.9" gradientUnits="userSpaceOnUse" xlink:href="#b"/>
 </defs>
 <g transform="matrix(.55317 0 0 .55317 7.4698e-7 -45.794)">
  <path transform="matrix(6.968 0 0 7.1641 -8892 -4102)" d="m1281.8 669.91 53.192 20.647 42.693-29.395-53.192-13.648-42.693 22.396z" fill-rule="evenodd" filter="url(#ab)" opacity=".75581"/>
  <path d="m58.552 403.57v277.04l354.81 128.85 273.95-183.15v-263.18l-281.65 149.29-347.11-108.85z" fill="#09F" fill-rule="evenodd"/>
  <path transform="matrix(15.815 0 0 15.815 -15711 -2401.2)" d="m997.28 194.51 22.069 8.2646v-17.074l-22.069-6.7207v15.53z" fill="url(#f)" fill-rule="evenodd" filter="url(#ad)" opacity=".52536"/>
  <path transform="matrix(18.002 0 0 18.002 -17643 -3485)" d="m1002.7 222.42h0.4393v15.805h-0.4393z" fill="url(#t)" filter="url(#ae)" opacity=".52174"/>
  <path d="m339.2 255.16 355.65 56.072-0.86985 95.519l-279.88 141.65-360.75-110.91 0.589-97.64 285.26-84.69z" fill="#007fff"/>
  <path transform="matrix(15.815 0 0 15.815 -15711 -2401.2)" d="m997.08 173.49 22.371 5.9407 17.588-7.6939-0.022 0.45696-17.306 7.6695-0.086 6.2298h-0.5191l-9e-4 -6.2298-21.999-5.8465-0.0261-0.52675z" fill="url(#s)" fill-rule="evenodd" filter="url(#af)"/>
  <path d="m486.83 278.45-296.48 97.897-4.4141 351.7 73.66 26.465 3.7056-357.02 297.45-107.8-73.928-11.242z" fill="url(#u)" fill-rule="evenodd"/>
  <path d="m187.86 299.83 347.16 86.036-1.3127 343.43 65.879-44.226-1.1387-329.87-342.1-76.339-68.492 20.964z" fill="url(#v)" fill-rule="evenodd"/>
  <path d="m263.71 208.1s3.4494 28.5 23.26 54.73c9.4007 12.449 45.835 33.522 45.835 33.522l19.84 23.944s-20.524 6.8411-30.786 5.4729c-10.263-1.368-61.166-16.138-80.322-27.084s-53.361-49.525-55.414-58.419c-2.0528-8.8935-11.501-32.019-3.2912-47.07s24.096-22.038 28.885-22.722c4.7889-0.68481 49.94 22.576 49.94 22.576l2.0528 15.051z" fill="url(#g)" fill-rule="evenodd"/>
  <path transform="matrix(15.815 0 0 15.815 -15711 -2401.2)" d="m1005.6 175.93 4.1583 1.0225-0.2727 11.589-4.022-3.5448 0.1364-9.0664z" fill="url(#r)" fill-rule="evenodd" filter="url(#a)" opacity=".59058"/>
  <path d="m188.32 687.1-1.1862 39.963 71.34 25.754 0.58517-44.107-70.749-21.61z" fill="url(#w)" fill-rule="evenodd"/>
  <path transform="matrix(-13.1 0 0 13.1 13848 -2396.2)" d="m1011.5 210.58 4.0583 1.8229-0.1727 11.188-4.0219-3.5448 0.1363-9.4666z" fill="url(#q)" fill-rule="evenodd" filter="url(#a)" opacity=".67391"/>
  <g transform="matrix(15.742 1.5274 -1.5274 15.742 -15368 -3940.3)" fill-rule="evenodd">
   <path d="m1015 173.21s1.9083-0.14136 2.191 0.98952-0.6361 2.4738 1.767 4.6649c0.7068-0.3534 0.7775-1.0602 0.7775-1.0602l1.8377 0.77748s-1.4843-2.1911-1.4843-3.1099c0-0.91884 0.212-2.0497-0.4241-2.4031s-3.746-0.3534-3.746-0.3534l-0.9188 0.49476z" filter="url(#a)" opacity=".9529"/>
   <path d="m1015.1 173.08s1.9083-0.14136 2.191 0.98952-0.6361 2.4738 1.767 4.6649c0.7068-0.3534 0.7775-1.0602 0.7775-1.0602l1.8377 0.77748s-1.4843-2.1911-1.4843-3.1099c0-0.91884 0.212-2.0497-0.4241-2.4031s-3.746-0.3534-3.746-0.3534l-0.9188 0.49476z" fill="url(#p)"/>
  </g>
  <path transform="matrix(15.815 0 0 15.815 -15711 -2401.2)" d="m1010.4 171.77s-1.8377 0.91884-2.6858 1.2016c-0.8481 0.28272-5.5131-0.0707-5.5131-0.0707l2.4031 0.77748-0.6361 1.4136s3.5238 0.0344 4.8063-0.14136c1.8919-0.25932 2.4738-1.767 5.0889-1.8377 1.5688-0.0424 2.4032 0.14136 2.4032 0.14136s-2.1204-1.6963-5.8665-1.4843z" fill-rule="evenodd" filter="url(#ac)"/>
  <path transform="matrix(15.815 0 0 15.815 -15711 -2401.2)" d="m1008.6 163.52s-1.1018-0.62958-1.5215-0.62958-1.9412 0.57711-2.0986 1.3641c-0.1574 0.78697-0.3673 2.4134 0.3673 3.3577 0.7346 0.94436 1.8362 1.9412 1.8362 1.9412s-1.6628-3.1658-0.9443-4.6169c0.7878-1.5909 2.4133-1.4166 2.3609-1.4166z" fill="url(#o)" fill-rule="evenodd" filter="url(#a)"/>
  <path d="m251.95 153.3c-29.762 2.0892-61.203 23.057-71.663 41.021-13.948 23.953 8.0184 67.132 40.304 92.088 44.245 34.2 110.44 35.473 110.44 35.473 0-1.0312 43.236 11.951 25.7-38.599-25.178-72.577-42.191-108.02-76.112-125.04-8.6858-4.3589-18.744-5.6387-28.666-4.9423zm-41.615 28.341c30.182-9.4105 49.033 31.589 62.373 48.265 16.42 20.524 57.826 81.054 57.826 81.054l8.4012 10.873s-4.5754 0.0791-50.412-10.873c-45.836-10.946-78.797-41.999-80.165-44.736-27.31-32.413-35.348-72.428 1.9769-84.583z" fill="url(#h)" fill-rule="evenodd"/>
  <path d="m273.41 311.77s-29.064 14.532-42.479 19.003c-13.415 4.4713-87.191-1.1182-87.191-1.1182l38.006 12.296-10.06 22.357s55.73 0.54405 76.012-2.2357c29.923-4.1013 39.124-27.946 80.485-29.064 24.811-0.67057 38.006 2.2357 38.006 2.2357s-33.535-26.828-92.78-23.475z" fill="url(#x)" fill-rule="evenodd"/>
  <path transform="matrix(15.815 0 0 15.815 -15711 -2401.2)" d="m1019.9 171.39s-3.0658-1.435-3.7833-1.435-1.8916 1.3698-1.5655 2.2178c0.3261 0.84798 2.8701 1.435 3.6528 1.435 0.697-0.17877 1.3308-0.39979 2.0221-0.71753 0-0.4566-0.3261-1.5003-0.3261-1.5003z" fill-rule="evenodd" filter="url(#a)"/>
  <path transform="matrix(15.815 0 0 15.815 -15711 -2401.2)" d="m1011.9 167.01 2.7814 4.3808 1.3908-1.043s-1.3908-3.1291-2.1557-4.5198-1.3212-2.0166-1.3212-2.0166 1.1822 2.9205 0.904 3.4768c-0.2782 0.55629-1.4603-0.27815-1.5993-0.27815z" fill="url(#n)" fill-rule="evenodd" filter="url(#a)"/>
  <path d="m417.73 308.21c-4.8854-4.128-49.561-24.038-60.908-24.038-11.348 0-29.917 21.664-24.759 35.075 5.1574 13.411 45.392 22.696 57.771 22.696 11.023-2.8273 21.047-6.3229 31.98-11.348 0-7.2213 2.1477-15.291-4.0836-22.386z" fill="url(#i)" fill-rule="evenodd"/>
  <path d="m399.16 341.51s35.533 13.026 57.424 16.446c21.892 3.4207 66.401 10.918 77.347 6.8136 10.946-4.1047 70.464-16.419 78.674-29.417 8.2098-12.998-43.784-15.051-43.784-15.051s-29.418 18.471-49.942 19.839-80.725-12.998-80.725-12.998l-38.311 10.262-0.68007 4.1047z" fill="url(#y)" fill-rule="evenodd"/>
  <path transform="matrix(15.815 0 0 15.815 -15711 -2401.2)" d="m1015.6 169.98s0.3477-0.16297 0.6448-0.0679c0.4241 0.13575 0.7643 0.1869 1.6798 0.57692 0.9873 0.42059 1.6537 0.75134 1.7216 0.80225 0.5576 0.47906 0.178 0.98646 0.1958 1.5394-0.3394 0.16968-1.3914 0.50904-1.5441 0.54298-0.7065-0.65205 0.082-1.7571 1.0518-1.84-0.1282-0.21455-1.2056-0.73421-1.4607-0.85297-0.8282-0.32936-1.746-0.64973-1.746-0.64973s-0.8478-0.105-1.2218 0.61086c0.085-0.35634 0.7127-0.69569 0.6788-0.66176z" fill="url(#m)" fill-rule="evenodd" filter="url(#a)"/>
  <path d="m405.32 336.72 33.522-8.2093s54.729-46.52 60.886-49.257c31.533-25.993 70.885-35.591 103.3-23.944 0 0-3.4209-41.731-14.367-47.204-10.946-5.4729-41.047-9.5777-41.047-9.5777s-40.715 27.303-45.504 32.092l-74.434 73.248-21.783 25.608-4.3556 8.9379 3.7799-1.6932z" fill="url(#z)" fill-rule="evenodd"/>
  <path d="m575.18 185.43c-53.361 3.4206-158.03 127.41-164.18 134.25-6.157 6.8413-15.468 21.592-14.784 20.908 0 0 66.64 29.642 124.11 26.222 57.467-3.4207 129.37-38.122 136.87-87.613 8.6321-56.888-28.653-97.191-82.014-93.77zm-36.347 23.603c18.026-3.2891 56.61-3.5719 49.692 53.991-4.2828 35.639-29.861 92.156-82.538 94.893-52.677 2.7364-104.16-20.046-103.48-20.73 0 1.6e-4 83.746-88.724 87.168-91.46 3.4225-2.7366 28.526-31.667 49.154-36.693z" fill="url(#aa)" fill-rule="evenodd"/>
  <path transform="matrix(15.815 0 0 15.815 -15711 -2401.2)" d="m1004.7 164.66c-0.1477-0.81079 1.467-2.0056 2.831-2.5303 1.364-0.52465 3.0661-0.3563 3.0661-0.3563s-1.4949 0.67108-2.1136 1.1237c-1.2466-0.12671-2.3898 0.40758-2.3898 0.40758s-0.7192 0.27735-1.3937 1.3553z" fill="url(#l)" fill-rule="evenodd" filter="url(#a)" opacity=".55797"/>
  <path transform="matrix(15.416 3.5311 -3.5311 15.416 -14718 -5967.5)" d="m1026.8 165.52c0.833-1.1376 1.272-1.644 2.917-2.1309 1.4015-0.41477 3.7517 0.66958 3.7517 0.66958s-1.2915 1.3749-1.9102 1.8275c-0.6837-0.93412-2.499-1.2178-2.499-1.2178s-1.0552-0.14341-2.2595 0.85157z" fill="url(#k)" fill-rule="evenodd" filter="url(#a)" opacity=".55797"/>
  <path transform="matrix(15.815 0 0 15.815 -15711 -2401.2)" d="m1030.8 165.7s0.7138 1.757 0.3295 3.2395-1.0433 2.361-1.0433 2.361 2.0316 0.38435 3.02-0.0549c0.9884-0.43926 1.5374-1.2629 1.5374-1.2629s0.4392-2.4708-0.1648-3.6239-1.3177-1.4276-1.3177-1.4276l-2.3611 0.7687z" fill="url(#j)" fill-rule="evenodd" filter="url(#a)"/>
 </g>
</svg>
